<mxfile host="app.diagrams.net" modified="2021-03-19T18:30:13.990Z" agent="5.0 (Macintosh; Intel Mac OS X 11_2_3) AppleWebKit/537.36 (KHTML, like Gecko) Chrome/89.0.4389.82 Safari/537.36" etag="CKq8tzl9cQmHfpWFnOen" version="14.4.9" type="github">
  <diagram id="6a731a19-8d31-9384-78a2-239565b7b9f0" name="Page-1">
    <mxGraphModel dx="2612" dy="1298" grid="0" gridSize="10" guides="0" tooltips="1" connect="1" arrows="1" fold="1" page="0" pageScale="1" pageWidth="1169" pageHeight="827" background="#ffffff" math="0" shadow="0">
      <root>
        <mxCell id="0" />
        <mxCell id="1" parent="0" />
        <mxCell id="cA759FfLyGFbBNWkvWXT-1889" value="" style="edgeStyle=none;rounded=0;jumpStyle=none;html=1;shadow=0;labelBackgroundColor=none;startArrow=none;startFill=0;endArrow=classic;endFill=1;jettySize=auto;orthogonalLoop=1;strokeColor=#B5739D;strokeWidth=3;fontFamily=Helvetica;fontSize=16;fontColor=#23445D;spacing=5;" parent="1" source="cA759FfLyGFbBNWkvWXT-1893" target="cA759FfLyGFbBNWkvWXT-1899" edge="1">
          <mxGeometry relative="1" as="geometry" />
        </mxCell>
        <mxCell id="cA759FfLyGFbBNWkvWXT-1890" value="" style="edgeStyle=none;rounded=0;jumpStyle=none;html=1;shadow=0;labelBackgroundColor=none;startArrow=none;startFill=0;endArrow=classic;endFill=1;jettySize=auto;orthogonalLoop=1;strokeColor=#12AAB5;strokeWidth=3;fontFamily=Helvetica;fontSize=16;fontColor=#23445D;spacing=5;" parent="1" source="cA759FfLyGFbBNWkvWXT-1893" target="cA759FfLyGFbBNWkvWXT-1904" edge="1">
          <mxGeometry relative="1" as="geometry" />
        </mxCell>
        <mxCell id="cA759FfLyGFbBNWkvWXT-1891" value="" style="edgeStyle=none;rounded=0;jumpStyle=none;html=1;shadow=0;labelBackgroundColor=none;startArrow=none;startFill=0;endArrow=classic;endFill=1;jettySize=auto;orthogonalLoop=1;strokeColor=#1699D3;strokeWidth=3;fontFamily=Helvetica;fontSize=16;fontColor=#23445D;spacing=5;" parent="1" source="cA759FfLyGFbBNWkvWXT-1893" edge="1">
          <mxGeometry relative="1" as="geometry">
            <mxPoint x="569.9999999999995" y="568.9999999999998" as="targetPoint" />
          </mxGeometry>
        </mxCell>
        <mxCell id="cA759FfLyGFbBNWkvWXT-1892" value="" style="edgeStyle=none;rounded=0;jumpStyle=none;html=1;shadow=0;labelBackgroundColor=none;startArrow=none;startFill=0;endArrow=classic;endFill=1;jettySize=auto;orthogonalLoop=1;strokeColor=#004C99;strokeWidth=3;fontFamily=Helvetica;fontSize=16;fontColor=#23445D;spacing=5;" parent="1" source="cA759FfLyGFbBNWkvWXT-1893" target="cA759FfLyGFbBNWkvWXT-1896" edge="1">
          <mxGeometry relative="1" as="geometry" />
        </mxCell>
        <mxCell id="cA759FfLyGFbBNWkvWXT-1893" value="OpenShift Value Realized" style="rounded=1;whiteSpace=wrap;html=1;shadow=0;labelBackgroundColor=none;strokeColor=none;strokeWidth=3;fillColor=#FFB366;fontFamily=Helvetica;fontSize=16;align=center;fontStyle=1;spacing=5;arcSize=7;perimeterSpacing=2;fontColor=#333333;" parent="1" vertex="1">
          <mxGeometry x="495" y="380.5" width="150" height="70" as="geometry" />
        </mxCell>
        <mxCell id="cA759FfLyGFbBNWkvWXT-1894" value="" style="edgeStyle=none;rounded=1;jumpStyle=none;html=1;shadow=0;labelBackgroundColor=none;startArrow=none;startFill=0;jettySize=auto;orthogonalLoop=1;strokeColor=#004C99;strokeWidth=3;fontFamily=Helvetica;fontSize=14;fontColor=#FFFFFF;spacing=5;fontStyle=1;fillColor=#b0e3e6;" parent="1" source="cA759FfLyGFbBNWkvWXT-1896" target="cA759FfLyGFbBNWkvWXT-1898" edge="1">
          <mxGeometry relative="1" as="geometry" />
        </mxCell>
        <mxCell id="cA759FfLyGFbBNWkvWXT-1895" value="" style="edgeStyle=none;rounded=1;jumpStyle=none;html=1;shadow=0;labelBackgroundColor=none;startArrow=none;startFill=0;jettySize=auto;orthogonalLoop=1;strokeColor=#004C99;strokeWidth=3;fontFamily=Helvetica;fontSize=14;fontColor=#FFFFFF;spacing=5;fontStyle=1;fillColor=#b0e3e6;" parent="1" source="cA759FfLyGFbBNWkvWXT-1896" target="cA759FfLyGFbBNWkvWXT-1897" edge="1">
          <mxGeometry relative="1" as="geometry" />
        </mxCell>
        <mxCell id="cA759FfLyGFbBNWkvWXT-1896" value="Security" style="rounded=1;whiteSpace=wrap;html=1;shadow=0;labelBackgroundColor=none;strokeColor=#004C99;strokeWidth=3;fillColor=#FFB366;fontFamily=Helvetica;fontSize=14;align=center;spacing=5;fontStyle=1;arcSize=7;perimeterSpacing=2;fontColor=#333333;" parent="1" vertex="1">
          <mxGeometry x="215" y="385.5" width="150" height="60" as="geometry" />
        </mxCell>
        <mxCell id="cA759FfLyGFbBNWkvWXT-1897" value="Security Scanning" style="rounded=1;whiteSpace=wrap;html=1;shadow=0;labelBackgroundColor=none;strokeColor=#004C99;strokeWidth=3;fillColor=#FFB366;fontFamily=Helvetica;fontSize=14;align=center;spacing=5;fontStyle=0;arcSize=7;perimeterSpacing=2;fontColor=#333333;" parent="1" vertex="1">
          <mxGeometry x="14" y="385.5" width="150" height="60" as="geometry" />
        </mxCell>
        <mxCell id="cA759FfLyGFbBNWkvWXT-1898" value="Base layer update process" style="rounded=1;whiteSpace=wrap;html=1;shadow=0;labelBackgroundColor=none;strokeColor=#004C99;strokeWidth=3;fillColor=#FF9999;fontFamily=Helvetica;fontSize=14;align=center;spacing=5;fontStyle=0;arcSize=7;perimeterSpacing=2;fontColor=#333333;" parent="1" vertex="1">
          <mxGeometry x="100" y="254.5" width="115" height="60" as="geometry" />
        </mxCell>
        <mxCell id="cA759FfLyGFbBNWkvWXT-1899" value="Developer Experience" style="rounded=1;whiteSpace=wrap;html=1;shadow=0;labelBackgroundColor=none;strokeColor=#B5739D;strokeWidth=3;fillColor=#FF9999;fontFamily=Helvetica;fontSize=14;align=center;spacing=5;fontStyle=1;arcSize=7;perimeterSpacing=2;fontColor=#333333;" parent="1" vertex="1">
          <mxGeometry x="495" y="200.5" width="150" height="60" as="geometry" />
        </mxCell>
        <mxCell id="cA759FfLyGFbBNWkvWXT-1900" value="Environment availability processes" style="rounded=1;whiteSpace=wrap;html=1;shadow=0;labelBackgroundColor=none;strokeColor=#B5739D;strokeWidth=3;fillColor=#FFB366;fontFamily=Helvetica;fontSize=14;align=center;spacing=5;arcSize=7;perimeterSpacing=2;fontColor=#333333;" parent="1" vertex="1">
          <mxGeometry x="610" y="100" width="120" height="60" as="geometry" />
        </mxCell>
        <mxCell id="cA759FfLyGFbBNWkvWXT-1901" value="" style="edgeStyle=none;rounded=0;jumpStyle=none;html=1;shadow=0;labelBackgroundColor=none;startArrow=none;startFill=0;endArrow=classic;endFill=1;jettySize=auto;orthogonalLoop=1;strokeColor=#B5739D;strokeWidth=3;fontFamily=Helvetica;fontSize=14;fontColor=#FFFFFF;spacing=5;" parent="1" source="cA759FfLyGFbBNWkvWXT-1899" target="cA759FfLyGFbBNWkvWXT-1900" edge="1">
          <mxGeometry relative="1" as="geometry" />
        </mxCell>
        <mxCell id="cA759FfLyGFbBNWkvWXT-1902" value="New developer or team onboarding to OCP" style="rounded=1;whiteSpace=wrap;html=1;shadow=0;labelBackgroundColor=none;strokeColor=#B5739D;strokeWidth=3;fillColor=#FF9999;fontFamily=Helvetica;fontSize=14;align=center;spacing=5;arcSize=7;perimeterSpacing=2;fontColor=#333333;" parent="1" vertex="1">
          <mxGeometry x="350" y="60" width="115" height="60" as="geometry" />
        </mxCell>
        <mxCell id="cA759FfLyGFbBNWkvWXT-1903" value="" style="edgeStyle=none;rounded=0;jumpStyle=none;html=1;shadow=0;labelBackgroundColor=none;startArrow=none;startFill=0;endArrow=classic;endFill=1;jettySize=auto;orthogonalLoop=1;strokeColor=#B5739D;strokeWidth=3;fontFamily=Helvetica;fontSize=14;fontColor=#FFFFFF;spacing=5;" parent="1" source="cA759FfLyGFbBNWkvWXT-1899" target="cA759FfLyGFbBNWkvWXT-1902" edge="1">
          <mxGeometry relative="1" as="geometry" />
        </mxCell>
        <mxCell id="cA759FfLyGFbBNWkvWXT-1904" value="Delivery of Business Value" style="rounded=1;whiteSpace=wrap;html=1;shadow=0;labelBackgroundColor=none;strokeColor=#12AAB5;strokeWidth=3;fillColor=#FF9999;fontFamily=Helvetica;fontSize=14;align=center;spacing=5;fontStyle=1;arcSize=7;perimeterSpacing=2;fontColor=#333333;" parent="1" vertex="1">
          <mxGeometry x="795" y="385.4999999999999" width="150" height="60" as="geometry" />
        </mxCell>
        <mxCell id="cA759FfLyGFbBNWkvWXT-1905" value="Money Saved" style="rounded=1;whiteSpace=wrap;html=1;shadow=0;labelBackgroundColor=none;strokeColor=#12AAB5;strokeWidth=3;fillColor=#FFFFFF;fontFamily=Helvetica;fontSize=14;align=center;spacing=5;fontStyle=0;arcSize=7;perimeterSpacing=2;fontColor=#333333;" parent="1" vertex="1">
          <mxGeometry x="1005" y="434.5" width="150" height="60" as="geometry" />
        </mxCell>
        <mxCell id="cA759FfLyGFbBNWkvWXT-1906" value="" style="edgeStyle=none;rounded=1;jumpStyle=none;html=1;shadow=0;labelBackgroundColor=none;startArrow=none;startFill=0;jettySize=auto;orthogonalLoop=1;strokeColor=#12AAB5;strokeWidth=3;fontFamily=Helvetica;fontSize=14;fontColor=#FFFFFF;spacing=5;fontStyle=1;fillColor=#b0e3e6;" parent="1" source="cA759FfLyGFbBNWkvWXT-1904" target="cA759FfLyGFbBNWkvWXT-1905" edge="1">
          <mxGeometry relative="1" as="geometry" />
        </mxCell>
        <mxCell id="cA759FfLyGFbBNWkvWXT-1907" value="Time Saved" style="rounded=1;whiteSpace=wrap;html=1;shadow=0;labelBackgroundColor=none;strokeColor=#12AAB5;strokeWidth=3;fillColor=#FFFFFF;fontFamily=Helvetica;fontSize=14;align=center;spacing=5;fontStyle=0;arcSize=7;perimeterSpacing=2;fontColor=#333333;" parent="1" vertex="1">
          <mxGeometry x="1260" y="434.5" width="150" height="60" as="geometry" />
        </mxCell>
        <mxCell id="cA759FfLyGFbBNWkvWXT-1908" value="" style="edgeStyle=none;rounded=1;jumpStyle=none;html=1;shadow=0;labelBackgroundColor=none;startArrow=none;startFill=0;jettySize=auto;orthogonalLoop=1;strokeColor=#12AAB5;strokeWidth=3;fontFamily=Helvetica;fontSize=14;fontColor=#FFFFFF;spacing=5;fontStyle=1;fillColor=#b0e3e6;exitX=1;exitY=0.5;exitDx=0;exitDy=0;entryX=0;entryY=0.5;entryDx=0;entryDy=0;" parent="1" source="cA759FfLyGFbBNWkvWXT-1905" target="cA759FfLyGFbBNWkvWXT-1907" edge="1">
          <mxGeometry relative="1" as="geometry">
            <mxPoint x="1250" y="465" as="targetPoint" />
          </mxGeometry>
        </mxCell>
        <mxCell id="cA759FfLyGFbBNWkvWXT-1909" value="New Feature and bug fix delivery (code changes)" style="rounded=1;whiteSpace=wrap;html=1;shadow=0;labelBackgroundColor=none;strokeColor=#12AAB5;strokeWidth=3;fillColor=#FF9999;fontFamily=Helvetica;fontSize=14;align=center;spacing=5;fontStyle=0;arcSize=7;perimeterSpacing=2;fontColor=#333333;" parent="1" vertex="1">
          <mxGeometry x="875" y="244.5" width="150" height="60" as="geometry" />
        </mxCell>
        <mxCell id="cA759FfLyGFbBNWkvWXT-1910" value="" style="edgeStyle=none;rounded=1;jumpStyle=none;html=1;shadow=0;labelBackgroundColor=none;startArrow=none;startFill=0;jettySize=auto;orthogonalLoop=1;strokeColor=#12AAB5;strokeWidth=3;fontFamily=Helvetica;fontSize=14;fontColor=#FFFFFF;spacing=5;fontStyle=1;fillColor=#b0e3e6;" parent="1" source="cA759FfLyGFbBNWkvWXT-1904" target="cA759FfLyGFbBNWkvWXT-1909" edge="1">
          <mxGeometry relative="1" as="geometry" />
        </mxCell>
        <mxCell id="cA759FfLyGFbBNWkvWXT-1911" value="CI/CD Process" style="rounded=1;whiteSpace=wrap;html=1;shadow=0;labelBackgroundColor=none;strokeColor=#B5739D;strokeWidth=3;fillColor=#f5af58;fontFamily=Helvetica;fontSize=14;align=center;spacing=5;arcSize=7;perimeterSpacing=2;fontColor=#333333;" parent="1" vertex="1">
          <mxGeometry x="900" y="140" width="150" height="60" as="geometry" />
        </mxCell>
        <mxCell id="cA759FfLyGFbBNWkvWXT-1912" value="" style="edgeStyle=none;rounded=1;jumpStyle=none;html=1;shadow=0;labelBackgroundColor=none;startArrow=none;startFill=0;jettySize=auto;orthogonalLoop=1;strokeColor=#12AAB5;strokeWidth=3;fontFamily=Helvetica;fontSize=14;fontColor=#FFFFFF;spacing=5;fontStyle=1;fillColor=#b0e3e6;exitX=0.455;exitY=0.055;exitDx=0;exitDy=0;exitPerimeter=0;" parent="1" source="cA759FfLyGFbBNWkvWXT-1909" target="cA759FfLyGFbBNWkvWXT-1911" edge="1">
          <mxGeometry relative="1" as="geometry">
            <mxPoint x="961.316028368794" y="247.5" as="sourcePoint" />
            <mxPoint x="1005.0039716312054" y="170.5" as="targetPoint" />
          </mxGeometry>
        </mxCell>
        <mxCell id="cA759FfLyGFbBNWkvWXT-1913" value="" style="edgeStyle=none;rounded=0;jumpStyle=none;html=1;shadow=0;labelBackgroundColor=none;startArrow=none;startFill=0;endArrow=classic;endFill=1;jettySize=auto;orthogonalLoop=1;strokeColor=#B5739D;strokeWidth=3;fontFamily=Helvetica;fontSize=14;fontColor=#FFFFFF;spacing=5;entryX=0;entryY=0.5;entryDx=0;entryDy=0;exitX=1;exitY=0.5;exitDx=0;exitDy=0;" parent="1" source="cA759FfLyGFbBNWkvWXT-1899" target="cA759FfLyGFbBNWkvWXT-1909" edge="1">
          <mxGeometry relative="1" as="geometry">
            <mxPoint x="651.1111111111109" y="208.5" as="sourcePoint" />
            <mxPoint x="708.8888888888887" y="182.5" as="targetPoint" />
          </mxGeometry>
        </mxCell>
        <mxCell id="cA759FfLyGFbBNWkvWXT-1914" value="" style="edgeStyle=none;rounded=1;jumpStyle=none;html=1;shadow=0;labelBackgroundColor=none;startArrow=none;startFill=0;jettySize=auto;orthogonalLoop=1;strokeColor=#12AAB5;strokeWidth=3;fontFamily=Helvetica;fontSize=14;fontColor=#FFFFFF;spacing=5;fontStyle=1;fillColor=#b0e3e6;exitX=0.5;exitY=0;exitDx=0;exitDy=0;entryX=0.5;entryY=1;entryDx=0;entryDy=0;" parent="1" source="cA759FfLyGFbBNWkvWXT-1907" target="cA759FfLyGFbBNWkvWXT-1915" edge="1">
          <mxGeometry relative="1" as="geometry">
            <mxPoint x="1160" y="350" as="sourcePoint" />
            <mxPoint x="1225" y="324.4966666666668" as="targetPoint" />
          </mxGeometry>
        </mxCell>
        <mxCell id="cA759FfLyGFbBNWkvWXT-1915" value="Visible Metrics" style="rounded=1;whiteSpace=wrap;html=1;shadow=0;labelBackgroundColor=none;strokeColor=#12AAB5;strokeWidth=3;fillColor=#FF9999;fontFamily=Helvetica;fontSize=14;align=center;spacing=5;fontStyle=0;arcSize=7;perimeterSpacing=2;fontColor=#333333;" parent="1" vertex="1">
          <mxGeometry x="1290" y="280" width="150" height="60" as="geometry" />
        </mxCell>
        <mxCell id="cA759FfLyGFbBNWkvWXT-1916" value="" style="edgeStyle=none;rounded=1;jumpStyle=none;html=1;shadow=0;labelBackgroundColor=none;startArrow=none;startFill=0;jettySize=auto;orthogonalLoop=1;strokeColor=#12AAB5;strokeWidth=3;fontFamily=Helvetica;fontSize=14;fontColor=#FFFFFF;spacing=5;fontStyle=1;fillColor=#b0e3e6;exitX=0.5;exitY=0;exitDx=0;exitDy=0;entryX=0.455;entryY=0.977;entryDx=0;entryDy=0;entryPerimeter=0;" parent="1" source="cA759FfLyGFbBNWkvWXT-1905" target="cA759FfLyGFbBNWkvWXT-1944" edge="1">
          <mxGeometry relative="1" as="geometry">
            <mxPoint x="1167" y="474.5" as="sourcePoint" />
            <mxPoint x="1268" y="474.5" as="targetPoint" />
          </mxGeometry>
        </mxCell>
        <mxCell id="cA759FfLyGFbBNWkvWXT-1917" value="" style="edgeStyle=none;rounded=1;jumpStyle=none;html=1;shadow=0;labelBackgroundColor=none;startArrow=none;startFill=0;jettySize=auto;orthogonalLoop=1;strokeColor=#12AAB5;strokeWidth=3;fontFamily=Helvetica;fontSize=14;fontColor=#FFFFFF;spacing=5;fontStyle=1;fillColor=#b0e3e6;exitX=1;exitY=0.5;exitDx=0;exitDy=0;entryX=0;entryY=0.5;entryDx=0;entryDy=0;" parent="1" source="cA759FfLyGFbBNWkvWXT-1944" target="cA759FfLyGFbBNWkvWXT-1915" edge="1">
          <mxGeometry relative="1" as="geometry">
            <mxPoint x="1090" y="442.5" as="sourcePoint" />
            <mxPoint x="1155" y="392.5" as="targetPoint" />
          </mxGeometry>
        </mxCell>
        <mxCell id="cA759FfLyGFbBNWkvWXT-1918" value="New projects or deployment envs" style="rounded=1;whiteSpace=wrap;html=1;shadow=0;labelBackgroundColor=none;strokeColor=#B5739D;strokeWidth=3;fillColor=#FF9999;fontFamily=Helvetica;fontSize=14;align=center;spacing=5;arcSize=7;perimeterSpacing=2;fontColor=#333333;" parent="1" vertex="1">
          <mxGeometry x="535" y="-20" width="110" height="60" as="geometry" />
        </mxCell>
        <mxCell id="cA759FfLyGFbBNWkvWXT-1919" value="Surrounding pieces - databases, Kafka topics, etc" style="rounded=1;whiteSpace=wrap;html=1;shadow=0;labelBackgroundColor=none;strokeColor=#B5739D;strokeWidth=3;fillColor=#FFB366;fontFamily=Helvetica;fontSize=14;align=center;spacing=5;arcSize=7;perimeterSpacing=2;fontColor=#333333;" parent="1" vertex="1">
          <mxGeometry x="695" y="-20" width="150" height="60" as="geometry" />
        </mxCell>
        <mxCell id="cA759FfLyGFbBNWkvWXT-1921" value="Other" style="rounded=1;whiteSpace=wrap;html=1;shadow=0;labelBackgroundColor=none;strokeColor=#64BBE2;strokeWidth=3;fillColor=#FFFFFF;fontFamily=Helvetica;fontSize=14;align=center;spacing=5;arcSize=7;perimeterSpacing=2;fontColor=#333333;" parent="1" vertex="1">
          <mxGeometry x="1300" y="810" width="150" height="60" as="geometry" />
        </mxCell>
        <mxCell id="cA759FfLyGFbBNWkvWXT-1922" value="Source code" style="rounded=1;whiteSpace=wrap;html=1;shadow=0;labelBackgroundColor=none;strokeColor=#004C99;strokeWidth=3;fillColor=#FFB366;fontFamily=Helvetica;fontSize=14;align=center;spacing=5;fontStyle=0;arcSize=7;perimeterSpacing=2;fontColor=#333333;" parent="1" vertex="1">
          <mxGeometry x="-180" y="560" width="90" height="60" as="geometry" />
        </mxCell>
        <mxCell id="cA759FfLyGFbBNWkvWXT-1923" value="Source code dependencies" style="rounded=1;whiteSpace=wrap;html=1;shadow=0;labelBackgroundColor=none;strokeColor=#004C99;strokeWidth=3;fillColor=#B9E0A5;fontFamily=Helvetica;fontSize=14;align=center;spacing=5;fontStyle=0;arcSize=7;perimeterSpacing=2;fontColor=#333333;" parent="1" vertex="1">
          <mxGeometry x="-75" y="560" width="105" height="60" as="geometry" />
        </mxCell>
        <mxCell id="cA759FfLyGFbBNWkvWXT-1924" value="Container dependencies" style="rounded=1;whiteSpace=wrap;html=1;shadow=0;labelBackgroundColor=none;strokeColor=#004C99;strokeWidth=3;fillColor=#FF9999;fontFamily=Helvetica;fontSize=14;align=center;spacing=5;fontStyle=0;arcSize=7;perimeterSpacing=2;fontColor=#333333;" parent="1" vertex="1">
          <mxGeometry x="50" y="560" width="100" height="60" as="geometry" />
        </mxCell>
        <mxCell id="cA759FfLyGFbBNWkvWXT-1925" value="Part of the CI/CD process" style="rounded=1;whiteSpace=wrap;html=1;shadow=0;labelBackgroundColor=none;strokeColor=#004C99;strokeWidth=3;fillColor=#B9E0A5;fontFamily=Helvetica;fontSize=14;align=center;spacing=5;fontStyle=0;arcSize=7;perimeterSpacing=2;fontColor=#333333;" parent="1" vertex="1">
          <mxGeometry x="-280" y="330" width="150" height="60" as="geometry" />
        </mxCell>
        <mxCell id="cA759FfLyGFbBNWkvWXT-1926" value="Visible in IDE" style="rounded=1;whiteSpace=wrap;html=1;shadow=0;labelBackgroundColor=none;strokeColor=#B5739D;strokeWidth=3;fillColor=#B9E0A5;fontFamily=Helvetica;fontSize=14;align=center;spacing=5;fontStyle=0;arcSize=7;perimeterSpacing=2;fontColor=#333333;" parent="1" vertex="1">
          <mxGeometry x="-120" y="150" width="150" height="60" as="geometry" />
        </mxCell>
        <mxCell id="cA759FfLyGFbBNWkvWXT-1927" value="Incorporated in Metrics" style="rounded=1;whiteSpace=wrap;html=1;shadow=0;labelBackgroundColor=none;strokeColor=#004C99;strokeWidth=3;fillColor=#FF9999;fontFamily=Helvetica;fontSize=14;align=center;spacing=5;fontStyle=0;arcSize=7;perimeterSpacing=2;fontColor=#333333;" parent="1" vertex="1">
          <mxGeometry x="-280" y="400" width="150" height="60" as="geometry" />
        </mxCell>
        <mxCell id="cA759FfLyGFbBNWkvWXT-1928" value="" style="edgeStyle=none;rounded=1;jumpStyle=none;html=1;shadow=0;labelBackgroundColor=none;startArrow=none;startFill=0;jettySize=auto;orthogonalLoop=1;strokeColor=#004C99;strokeWidth=3;fontFamily=Helvetica;fontSize=14;fontColor=#FFFFFF;spacing=5;fontStyle=1;fillColor=#b0e3e6;exitX=0.5;exitY=1;exitDx=0;exitDy=0;entryX=0.5;entryY=0;entryDx=0;entryDy=0;" parent="1" source="cA759FfLyGFbBNWkvWXT-1897" target="cA759FfLyGFbBNWkvWXT-1922" edge="1">
          <mxGeometry relative="1" as="geometry">
            <mxPoint x="20" y="490" as="sourcePoint" />
            <mxPoint x="-75" y="510" as="targetPoint" />
          </mxGeometry>
        </mxCell>
        <mxCell id="cA759FfLyGFbBNWkvWXT-1929" value="" style="edgeStyle=none;rounded=1;jumpStyle=none;html=1;shadow=0;labelBackgroundColor=none;startArrow=none;startFill=0;jettySize=auto;orthogonalLoop=1;strokeColor=#004C99;strokeWidth=3;fontFamily=Helvetica;fontSize=14;fontColor=#FFFFFF;spacing=5;fontStyle=1;fillColor=#b0e3e6;exitX=0.5;exitY=1;exitDx=0;exitDy=0;entryX=0.5;entryY=0;entryDx=0;entryDy=0;" parent="1" source="cA759FfLyGFbBNWkvWXT-1897" target="cA759FfLyGFbBNWkvWXT-1923" edge="1">
          <mxGeometry relative="1" as="geometry">
            <mxPoint x="22" y="425.5" as="sourcePoint" />
            <mxPoint x="-18" y="425.5" as="targetPoint" />
          </mxGeometry>
        </mxCell>
        <mxCell id="cA759FfLyGFbBNWkvWXT-1930" value="" style="edgeStyle=none;rounded=1;jumpStyle=none;html=1;shadow=0;labelBackgroundColor=none;startArrow=none;startFill=0;jettySize=auto;orthogonalLoop=1;strokeColor=#004C99;strokeWidth=3;fontFamily=Helvetica;fontSize=14;fontColor=#FFFFFF;spacing=5;fontStyle=1;fillColor=#b0e3e6;exitX=0.5;exitY=1;exitDx=0;exitDy=0;entryX=0.5;entryY=0;entryDx=0;entryDy=0;" parent="1" source="cA759FfLyGFbBNWkvWXT-1897" target="cA759FfLyGFbBNWkvWXT-1924" edge="1">
          <mxGeometry relative="1" as="geometry">
            <mxPoint x="32" y="435.5" as="sourcePoint" />
            <mxPoint x="-8" y="435.5" as="targetPoint" />
          </mxGeometry>
        </mxCell>
        <mxCell id="cA759FfLyGFbBNWkvWXT-1931" value="" style="edgeStyle=none;rounded=1;jumpStyle=none;html=1;shadow=0;labelBackgroundColor=none;startArrow=none;startFill=0;jettySize=auto;orthogonalLoop=1;strokeColor=#004C99;strokeWidth=3;fontFamily=Helvetica;fontSize=14;fontColor=#FFFFFF;spacing=5;fontStyle=1;fillColor=#b0e3e6;exitX=0;exitY=0.5;exitDx=0;exitDy=0;entryX=1;entryY=0.5;entryDx=0;entryDy=0;" parent="1" source="cA759FfLyGFbBNWkvWXT-1897" target="cA759FfLyGFbBNWkvWXT-1925" edge="1">
          <mxGeometry relative="1" as="geometry">
            <mxPoint x="22" y="425.5" as="sourcePoint" />
            <mxPoint x="-100" y="420" as="targetPoint" />
          </mxGeometry>
        </mxCell>
        <mxCell id="cA759FfLyGFbBNWkvWXT-1932" value="" style="edgeStyle=none;rounded=1;jumpStyle=none;html=1;shadow=0;labelBackgroundColor=none;startArrow=none;startFill=0;jettySize=auto;orthogonalLoop=1;strokeColor=#004C99;strokeWidth=3;fontFamily=Helvetica;fontSize=14;fontColor=#FFFFFF;spacing=5;fontStyle=1;fillColor=#b0e3e6;exitX=0.25;exitY=0;exitDx=0;exitDy=0;entryX=0.5;entryY=1;entryDx=0;entryDy=0;" parent="1" source="cA759FfLyGFbBNWkvWXT-1897" target="cA759FfLyGFbBNWkvWXT-1926" edge="1">
          <mxGeometry relative="1" as="geometry">
            <mxPoint x="-280" y="415" as="sourcePoint" />
            <mxPoint x="-330" y="415" as="targetPoint" />
          </mxGeometry>
        </mxCell>
        <mxCell id="cA759FfLyGFbBNWkvWXT-1933" value="" style="edgeStyle=none;rounded=1;jumpStyle=none;html=1;shadow=0;labelBackgroundColor=none;startArrow=none;startFill=0;jettySize=auto;orthogonalLoop=1;strokeColor=#004C99;strokeWidth=3;fontFamily=Helvetica;fontSize=14;fontColor=#FFFFFF;spacing=5;fontStyle=1;fillColor=#b0e3e6;exitX=0;exitY=0.5;exitDx=0;exitDy=0;entryX=1;entryY=0.5;entryDx=0;entryDy=0;" parent="1" source="cA759FfLyGFbBNWkvWXT-1897" target="cA759FfLyGFbBNWkvWXT-1927" edge="1">
          <mxGeometry relative="1" as="geometry">
            <mxPoint x="22" y="425.5" as="sourcePoint" />
            <mxPoint x="-118" y="370" as="targetPoint" />
          </mxGeometry>
        </mxCell>
        <mxCell id="cA759FfLyGFbBNWkvWXT-1934" value="" style="edgeStyle=none;rounded=0;jumpStyle=none;html=1;shadow=0;labelBackgroundColor=none;startArrow=none;startFill=0;endArrow=classic;endFill=1;jettySize=auto;orthogonalLoop=1;strokeColor=#B5739D;strokeWidth=3;fontFamily=Helvetica;fontSize=14;fontColor=#FFFFFF;spacing=5;exitX=0;exitY=0.5;exitDx=0;exitDy=0;entryX=1;entryY=0.5;entryDx=0;entryDy=0;" parent="1" source="cA759FfLyGFbBNWkvWXT-1899" target="cA759FfLyGFbBNWkvWXT-1926" edge="1">
          <mxGeometry relative="1" as="geometry">
            <mxPoint x="508.88888888888914" y="208.5" as="sourcePoint" />
            <mxPoint x="451.1111111111113" y="182.5" as="targetPoint" />
          </mxGeometry>
        </mxCell>
        <mxCell id="cA759FfLyGFbBNWkvWXT-1935" value="" style="edgeStyle=none;rounded=1;jumpStyle=none;html=1;shadow=0;labelBackgroundColor=none;startArrow=none;startFill=0;jettySize=auto;orthogonalLoop=1;strokeColor=#004C99;strokeWidth=3;fontFamily=Helvetica;fontSize=14;fontColor=#FFFFFF;spacing=5;fontStyle=1;fillColor=#b0e3e6;exitX=0.5;exitY=1;exitDx=0;exitDy=0;entryX=0.5;entryY=0;entryDx=0;entryDy=0;" parent="1" source="cA759FfLyGFbBNWkvWXT-1896" target="cA759FfLyGFbBNWkvWXT-1969" edge="1">
          <mxGeometry relative="1" as="geometry">
            <mxPoint x="223" y="425.5" as="sourcePoint" />
            <mxPoint x="184" y="512" as="targetPoint" />
          </mxGeometry>
        </mxCell>
        <mxCell id="cA759FfLyGFbBNWkvWXT-1936" value="" style="edgeStyle=none;rounded=0;jumpStyle=none;html=1;shadow=0;labelBackgroundColor=none;startArrow=none;startFill=0;endArrow=classic;endFill=1;jettySize=auto;orthogonalLoop=1;strokeColor=#B5739D;strokeWidth=3;fontFamily=Helvetica;fontSize=14;fontColor=#FFFFFF;spacing=5;exitX=0.25;exitY=0;exitDx=0;exitDy=0;entryX=0.5;entryY=1;entryDx=0;entryDy=0;" parent="1" source="cA759FfLyGFbBNWkvWXT-1900" target="cA759FfLyGFbBNWkvWXT-1918" edge="1">
          <mxGeometry relative="1" as="geometry">
            <mxPoint x="651.1111111111109" y="208.5" as="sourcePoint" />
            <mxPoint x="708.8888888888887" y="182.5" as="targetPoint" />
          </mxGeometry>
        </mxCell>
        <mxCell id="cA759FfLyGFbBNWkvWXT-1937" value="" style="edgeStyle=none;rounded=0;jumpStyle=none;html=1;shadow=0;labelBackgroundColor=none;startArrow=none;startFill=0;endArrow=classic;endFill=1;jettySize=auto;orthogonalLoop=1;strokeColor=#B5739D;strokeWidth=3;fontFamily=Helvetica;fontSize=14;fontColor=#FFFFFF;spacing=5;exitX=0.75;exitY=0;exitDx=0;exitDy=0;entryX=0.5;entryY=1;entryDx=0;entryDy=0;" parent="1" source="cA759FfLyGFbBNWkvWXT-1900" target="cA759FfLyGFbBNWkvWXT-1919" edge="1">
          <mxGeometry relative="1" as="geometry">
            <mxPoint x="741.5" y="118.5" as="sourcePoint" />
            <mxPoint x="735" y="92" as="targetPoint" />
          </mxGeometry>
        </mxCell>
        <mxCell id="cA759FfLyGFbBNWkvWXT-1938" value="" style="edgeStyle=none;rounded=0;jumpStyle=none;html=1;shadow=0;labelBackgroundColor=none;startArrow=none;startFill=0;endArrow=classic;endFill=1;jettySize=auto;orthogonalLoop=1;strokeColor=#B5739D;strokeWidth=3;fontFamily=Helvetica;fontSize=14;fontColor=#FFFFFF;spacing=5;entryX=0;entryY=0.5;entryDx=0;entryDy=0;exitX=1;exitY=0.25;exitDx=0;exitDy=0;" parent="1" source="cA759FfLyGFbBNWkvWXT-1899" target="cA759FfLyGFbBNWkvWXT-1911" edge="1">
          <mxGeometry relative="1" as="geometry">
            <mxPoint x="657" y="240.5" as="sourcePoint" />
            <mxPoint x="883" y="284.5" as="targetPoint" />
          </mxGeometry>
        </mxCell>
        <mxCell id="cA759FfLyGFbBNWkvWXT-1939" value="" style="edgeStyle=none;rounded=1;jumpStyle=none;html=1;shadow=0;labelBackgroundColor=none;startArrow=none;startFill=0;jettySize=auto;orthogonalLoop=1;strokeColor=#12AAB5;strokeWidth=3;fontFamily=Helvetica;fontSize=14;fontColor=#FFFFFF;spacing=5;fontStyle=1;fillColor=#b0e3e6;exitX=0.5;exitY=1;exitDx=0;exitDy=0;entryX=1;entryY=0.5;entryDx=0;entryDy=0;" parent="1" source="cA759FfLyGFbBNWkvWXT-1907" target="cA759FfLyGFbBNWkvWXT-1941" edge="1">
          <mxGeometry relative="1" as="geometry">
            <mxPoint x="1280" y="530" as="targetPoint" />
            <mxPoint x="1167" y="474.5" as="sourcePoint" />
          </mxGeometry>
        </mxCell>
        <mxCell id="cA759FfLyGFbBNWkvWXT-1940" value="" style="edgeStyle=none;rounded=1;jumpStyle=none;html=1;shadow=0;labelBackgroundColor=none;startArrow=none;startFill=0;jettySize=auto;orthogonalLoop=1;strokeColor=#12AAB5;strokeWidth=3;fontFamily=Helvetica;fontSize=14;fontColor=#FFFFFF;spacing=5;fontStyle=1;fillColor=#b0e3e6;exitX=0.5;exitY=1;exitDx=0;exitDy=0;entryX=0;entryY=0.5;entryDx=0;entryDy=0;" parent="1" source="cA759FfLyGFbBNWkvWXT-1905" target="cA759FfLyGFbBNWkvWXT-1941" edge="1">
          <mxGeometry relative="1" as="geometry">
            <mxPoint x="1090" y="442.5" as="sourcePoint" />
            <mxPoint x="1150" y="540" as="targetPoint" />
          </mxGeometry>
        </mxCell>
        <mxCell id="cA759FfLyGFbBNWkvWXT-1941" value="IT tooling containerized" style="rounded=1;whiteSpace=wrap;html=1;shadow=0;labelBackgroundColor=none;strokeColor=#12AAB5;strokeWidth=3;fillColor=#FFCC99;fontFamily=Helvetica;fontSize=14;align=center;spacing=5;fontStyle=0;arcSize=7;perimeterSpacing=2;fontColor=#333333;" parent="1" vertex="1">
          <mxGeometry x="1155" y="530" width="120" height="60" as="geometry" />
        </mxCell>
        <mxCell id="cA759FfLyGFbBNWkvWXT-1942" value="Surrounding pieces containerized" style="rounded=1;whiteSpace=wrap;html=1;shadow=0;labelBackgroundColor=none;strokeColor=#B5739D;strokeWidth=3;fillColor=#B9E0A5;fontFamily=Helvetica;fontSize=14;align=center;spacing=5;arcSize=7;perimeterSpacing=2;fontColor=#333333;" parent="1" vertex="1">
          <mxGeometry x="920" y="-20" width="150" height="60" as="geometry" />
        </mxCell>
        <mxCell id="cA759FfLyGFbBNWkvWXT-1943" value="" style="edgeStyle=none;rounded=0;jumpStyle=none;html=1;shadow=0;labelBackgroundColor=none;startArrow=none;startFill=0;endArrow=classic;endFill=1;jettySize=auto;orthogonalLoop=1;strokeColor=#B5739D;strokeWidth=3;fontFamily=Helvetica;fontSize=14;fontColor=#FFFFFF;spacing=5;exitX=1;exitY=0.5;exitDx=0;exitDy=0;entryX=0;entryY=0.5;entryDx=0;entryDy=0;" parent="1" source="cA759FfLyGFbBNWkvWXT-1919" target="cA759FfLyGFbBNWkvWXT-1942" edge="1">
          <mxGeometry relative="1" as="geometry">
            <mxPoint x="926" y="100" as="sourcePoint" />
            <mxPoint x="960" y="94" as="targetPoint" />
          </mxGeometry>
        </mxCell>
        <mxCell id="cA759FfLyGFbBNWkvWXT-1944" value="Product-related (swap out unused or expensive products)" style="rounded=1;whiteSpace=wrap;html=1;shadow=0;labelBackgroundColor=none;strokeColor=#12AAB5;strokeWidth=3;fillColor=#FF9999;fontFamily=Helvetica;fontSize=14;align=center;spacing=5;fontStyle=0;arcSize=7;perimeterSpacing=2;fontColor=#333333;" parent="1" vertex="1">
          <mxGeometry x="1100" y="314.5" width="150" height="60" as="geometry" />
        </mxCell>
        <mxCell id="cA759FfLyGFbBNWkvWXT-1945" value="Automated&lt;br&gt;repeatable&lt;br&gt;auditable" style="rounded=1;whiteSpace=wrap;html=1;shadow=0;labelBackgroundColor=none;strokeColor=#B5739D;strokeWidth=3;fillColor=#FF9999;fontFamily=Helvetica;fontSize=14;align=center;spacing=5;arcSize=7;perimeterSpacing=2;fontColor=#333333;" parent="1" vertex="1">
          <mxGeometry x="1130" y="50" width="150" height="60" as="geometry" />
        </mxCell>
        <mxCell id="cA759FfLyGFbBNWkvWXT-1946" value="" style="edgeStyle=none;rounded=0;jumpStyle=none;html=1;shadow=0;labelBackgroundColor=none;startArrow=none;startFill=0;endArrow=classic;endFill=1;jettySize=auto;orthogonalLoop=1;strokeColor=#B5739D;strokeWidth=3;fontFamily=Helvetica;fontSize=14;fontColor=#FFFFFF;spacing=5;entryX=0;entryY=0.5;entryDx=0;entryDy=0;exitX=1;exitY=0.25;exitDx=0;exitDy=0;" parent="1" source="cA759FfLyGFbBNWkvWXT-1911" target="cA759FfLyGFbBNWkvWXT-1945" edge="1">
          <mxGeometry relative="1" as="geometry">
            <mxPoint x="1070" y="167.25" as="sourcePoint" />
            <mxPoint x="1306" y="237.25" as="targetPoint" />
          </mxGeometry>
        </mxCell>
        <mxCell id="cA759FfLyGFbBNWkvWXT-1947" value="" style="edgeStyle=none;rounded=0;jumpStyle=none;html=1;shadow=0;labelBackgroundColor=none;startArrow=none;startFill=0;endArrow=classic;endFill=1;jettySize=auto;orthogonalLoop=1;strokeColor=#1699D3;strokeWidth=3;fontFamily=Helvetica;fontSize=14;spacing=5;fontColor=#333333;" parent="1" source="cA759FfLyGFbBNWkvWXT-1950" target="cA759FfLyGFbBNWkvWXT-1953" edge="1">
          <mxGeometry relative="1" as="geometry" />
        </mxCell>
        <mxCell id="cA759FfLyGFbBNWkvWXT-1948" value="" style="edgeStyle=none;rounded=0;jumpStyle=none;html=1;shadow=0;labelBackgroundColor=none;startArrow=none;startFill=0;endArrow=classic;endFill=1;jettySize=auto;orthogonalLoop=1;strokeColor=#1699D3;strokeWidth=3;fontFamily=Helvetica;fontSize=14;spacing=5;fontColor=#333333;" parent="1" source="cA759FfLyGFbBNWkvWXT-1950" target="cA759FfLyGFbBNWkvWXT-1952" edge="1">
          <mxGeometry relative="1" as="geometry" />
        </mxCell>
        <mxCell id="cA759FfLyGFbBNWkvWXT-1949" value="" style="edgeStyle=none;rounded=0;jumpStyle=none;html=1;shadow=0;labelBackgroundColor=none;startArrow=none;startFill=0;endArrow=classic;endFill=1;jettySize=auto;orthogonalLoop=1;strokeColor=#1699D3;strokeWidth=3;fontFamily=Helvetica;fontSize=14;spacing=5;fontColor=#333333;" parent="1" source="cA759FfLyGFbBNWkvWXT-1950" target="cA759FfLyGFbBNWkvWXT-1951" edge="1">
          <mxGeometry relative="1" as="geometry" />
        </mxCell>
        <mxCell id="cA759FfLyGFbBNWkvWXT-1950" value="Cluster Care" style="rounded=1;whiteSpace=wrap;html=1;shadow=0;labelBackgroundColor=none;strokeColor=#1699D3;strokeWidth=3;fillColor=#FFCC99;fontFamily=Helvetica;fontSize=14;align=center;spacing=5;fontStyle=1;arcSize=7;perimeterSpacing=2;fontColor=#333333;" parent="1" vertex="1">
          <mxGeometry x="495" y="570.5" width="150" height="60" as="geometry" />
        </mxCell>
        <mxCell id="cA759FfLyGFbBNWkvWXT-1951" value="Where clusters run" style="rounded=1;whiteSpace=wrap;html=1;shadow=0;labelBackgroundColor=none;strokeColor=#64BBE2;strokeWidth=3;fillColor=#FFCC99;fontFamily=Helvetica;fontSize=14;align=center;spacing=5;arcSize=7;perimeterSpacing=2;fontColor=#333333;" parent="1" vertex="1">
          <mxGeometry x="695" y="650.5" width="150" height="60" as="geometry" />
        </mxCell>
        <mxCell id="cA759FfLyGFbBNWkvWXT-1952" value="Support" style="rounded=1;whiteSpace=wrap;html=1;shadow=0;labelBackgroundColor=none;strokeColor=#64BBE2;strokeWidth=3;fillColor=#B9E0A5;fontFamily=Helvetica;fontSize=14;align=center;spacing=5;arcSize=7;perimeterSpacing=2;fontColor=#333333;" parent="1" vertex="1">
          <mxGeometry x="580" y="730" width="150" height="60" as="geometry" />
        </mxCell>
        <mxCell id="cA759FfLyGFbBNWkvWXT-1953" value="Cluster upgrade process" style="rounded=1;whiteSpace=wrap;html=1;shadow=0;labelBackgroundColor=none;strokeColor=#64BBE2;strokeWidth=3;fillColor=#FFCC99;fontFamily=Helvetica;fontSize=14;align=center;spacing=5;arcSize=7;perimeterSpacing=2;fontColor=#333333;" parent="1" vertex="1">
          <mxGeometry x="380" y="710.5" width="150" height="60" as="geometry" />
        </mxCell>
        <mxCell id="cA759FfLyGFbBNWkvWXT-1954" value="TAM" style="rounded=1;whiteSpace=wrap;html=1;shadow=0;labelBackgroundColor=none;strokeColor=#64BBE2;strokeWidth=3;fillColor=#FF9999;fontFamily=Helvetica;fontSize=14;align=center;spacing=5;arcSize=7;perimeterSpacing=2;fontColor=#333333;" parent="1" vertex="1">
          <mxGeometry x="584" y="814" width="65" height="60" as="geometry" />
        </mxCell>
        <mxCell id="cA759FfLyGFbBNWkvWXT-1955" value="CSM" style="rounded=1;whiteSpace=wrap;html=1;shadow=0;labelBackgroundColor=none;strokeColor=#64BBE2;strokeWidth=3;fillColor=#B9E0A5;fontFamily=Helvetica;fontSize=14;align=center;spacing=5;arcSize=7;perimeterSpacing=2;fontColor=#333333;" parent="1" vertex="1">
          <mxGeometry x="664" y="814" width="60" height="60" as="geometry" />
        </mxCell>
        <mxCell id="cA759FfLyGFbBNWkvWXT-1956" value="On-prem" style="rounded=1;whiteSpace=wrap;html=1;shadow=0;labelBackgroundColor=none;strokeColor=#64BBE2;strokeWidth=3;fillColor=#B9E0A5;fontFamily=Helvetica;fontSize=14;align=center;spacing=5;arcSize=7;perimeterSpacing=2;fontColor=#333333;" parent="1" vertex="1">
          <mxGeometry x="875" y="650.5" width="150" height="60" as="geometry" />
        </mxCell>
        <mxCell id="cA759FfLyGFbBNWkvWXT-1957" value="Public cloud" style="rounded=1;whiteSpace=wrap;html=1;shadow=0;labelBackgroundColor=none;strokeColor=#64BBE2;strokeWidth=3;fillColor=#FF9999;fontFamily=Helvetica;fontSize=14;align=center;spacing=5;arcSize=7;perimeterSpacing=2;fontColor=#333333;" parent="1" vertex="1">
          <mxGeometry x="875" y="730" width="150" height="60" as="geometry" />
        </mxCell>
        <mxCell id="cA759FfLyGFbBNWkvWXT-1958" value="Multiple - hybrid or otherwise" style="rounded=1;whiteSpace=wrap;html=1;shadow=0;labelBackgroundColor=none;strokeColor=#64BBE2;strokeWidth=3;fillColor=#FF9999;fontFamily=Helvetica;fontSize=14;align=center;spacing=5;arcSize=7;perimeterSpacing=2;fontColor=#333333;" parent="1" vertex="1">
          <mxGeometry x="875" y="810" width="150" height="60" as="geometry" />
        </mxCell>
        <mxCell id="cA759FfLyGFbBNWkvWXT-1959" value="Bare metal" style="rounded=1;whiteSpace=wrap;html=1;shadow=0;labelBackgroundColor=none;strokeColor=#64BBE2;strokeWidth=3;fillColor=#FFFFFF;fontFamily=Helvetica;fontSize=14;align=center;spacing=5;arcSize=7;perimeterSpacing=2;fontColor=#333333;" parent="1" vertex="1">
          <mxGeometry x="1090" y="620" width="93" height="60" as="geometry" />
        </mxCell>
        <mxCell id="cA759FfLyGFbBNWkvWXT-1960" value="Managed" style="rounded=1;whiteSpace=wrap;html=1;shadow=0;labelBackgroundColor=none;strokeColor=#64BBE2;strokeWidth=3;fillColor=#FF9999;fontFamily=Helvetica;fontSize=14;align=center;spacing=5;arcSize=7;perimeterSpacing=2;fontColor=#333333;" parent="1" vertex="1">
          <mxGeometry x="1110" y="780" width="100" height="60" as="geometry" />
        </mxCell>
        <mxCell id="cA759FfLyGFbBNWkvWXT-1961" value="" style="edgeStyle=none;rounded=0;jumpStyle=none;html=1;shadow=0;labelBackgroundColor=none;startArrow=none;startFill=0;endArrow=classic;endFill=1;jettySize=auto;orthogonalLoop=1;strokeColor=#1699D3;strokeWidth=3;fontFamily=Helvetica;fontSize=14;spacing=5;exitX=1;exitY=0.5;exitDx=0;exitDy=0;entryX=0;entryY=0.5;entryDx=0;entryDy=0;fontColor=#333333;" parent="1" source="cA759FfLyGFbBNWkvWXT-1956" target="cA759FfLyGFbBNWkvWXT-1959" edge="1">
          <mxGeometry relative="1" as="geometry">
            <mxPoint x="800" y="770" as="sourcePoint" />
            <mxPoint x="703" y="691.7" as="targetPoint" />
          </mxGeometry>
        </mxCell>
        <mxCell id="cA759FfLyGFbBNWkvWXT-1962" value="OCP Virtualization" style="rounded=1;whiteSpace=wrap;html=1;shadow=0;labelBackgroundColor=none;strokeColor=#64BBE2;strokeWidth=3;fillColor=#FFFFFF;fontFamily=Helvetica;fontSize=14;align=center;spacing=5;arcSize=7;perimeterSpacing=2;fontColor=#333333;" parent="1" vertex="1">
          <mxGeometry x="1245" y="619" width="134" height="60" as="geometry" />
        </mxCell>
        <mxCell id="cA759FfLyGFbBNWkvWXT-1963" value="" style="edgeStyle=none;rounded=0;jumpStyle=none;html=1;shadow=0;labelBackgroundColor=none;startArrow=none;startFill=0;endArrow=classic;endFill=1;jettySize=auto;orthogonalLoop=1;strokeColor=#1699D3;strokeWidth=3;fontFamily=Helvetica;fontSize=14;spacing=5;exitX=1;exitY=0.75;exitDx=0;exitDy=0;entryX=0;entryY=0.5;entryDx=0;entryDy=0;fontColor=#333333;" parent="1" source="cA759FfLyGFbBNWkvWXT-1957" target="cA759FfLyGFbBNWkvWXT-1960" edge="1">
          <mxGeometry relative="1" as="geometry">
            <mxPoint x="1037" y="690.5" as="sourcePoint" />
            <mxPoint x="1118" y="690.5" as="targetPoint" />
          </mxGeometry>
        </mxCell>
        <mxCell id="cA759FfLyGFbBNWkvWXT-1964" value="OSD, ARO, ROSA, ROKS" style="rounded=1;whiteSpace=wrap;html=1;shadow=0;labelBackgroundColor=none;strokeColor=#64BBE2;strokeWidth=3;fillColor=#FF9999;fontFamily=Helvetica;fontSize=14;align=center;spacing=5;arcSize=7;perimeterSpacing=2;fontColor=#333333;" parent="1" vertex="1">
          <mxGeometry x="1300" y="730" width="106" height="60" as="geometry" />
        </mxCell>
        <mxCell id="cA759FfLyGFbBNWkvWXT-1966" value="Image Management" style="rounded=1;whiteSpace=wrap;html=1;shadow=0;labelBackgroundColor=none;strokeColor=#64BBE2;strokeWidth=3;fillColor=#FF9999;fontFamily=Helvetica;fontSize=14;align=center;spacing=5;arcSize=7;perimeterSpacing=2;fontColor=#333333;" parent="1" vertex="1">
          <mxGeometry x="340" y="570.5" width="100" height="60" as="geometry" />
        </mxCell>
        <mxCell id="cA759FfLyGFbBNWkvWXT-1967" value="" style="edgeStyle=none;rounded=0;jumpStyle=none;html=1;shadow=0;labelBackgroundColor=none;startArrow=none;startFill=0;endArrow=classic;endFill=1;jettySize=auto;orthogonalLoop=1;strokeColor=#1699D3;strokeWidth=3;fontFamily=Helvetica;fontSize=14;spacing=5;exitX=0;exitY=0.5;exitDx=0;exitDy=0;entryX=1;entryY=0.5;entryDx=0;entryDy=0;fontColor=#333333;" parent="1" source="cA759FfLyGFbBNWkvWXT-1950" target="cA759FfLyGFbBNWkvWXT-1966" edge="1">
          <mxGeometry relative="1" as="geometry">
            <mxPoint x="553.7142857142858" y="642.5" as="sourcePoint" />
            <mxPoint x="491.2857142857142" y="718.5" as="targetPoint" />
          </mxGeometry>
        </mxCell>
        <mxCell id="cA759FfLyGFbBNWkvWXT-1968" value="Feeding multiple clusters" style="rounded=1;whiteSpace=wrap;html=1;shadow=0;labelBackgroundColor=none;strokeColor=#64BBE2;strokeWidth=3;fillColor=#FF9999;fontFamily=Helvetica;fontSize=14;align=center;spacing=5;arcSize=7;perimeterSpacing=2;fontColor=#333333;" parent="1" vertex="1">
          <mxGeometry x="210" y="660" width="100" height="60" as="geometry" />
        </mxCell>
        <mxCell id="cA759FfLyGFbBNWkvWXT-1969" value="Clean up process" style="rounded=1;whiteSpace=wrap;html=1;shadow=0;labelBackgroundColor=none;strokeColor=#004C99;strokeWidth=3;fillColor=#FF9999;fontFamily=Helvetica;fontSize=14;align=center;spacing=5;arcSize=7;perimeterSpacing=2;fontColor=#333333;" parent="1" vertex="1">
          <mxGeometry x="195" y="540" width="100" height="60" as="geometry" />
        </mxCell>
        <mxCell id="cA759FfLyGFbBNWkvWXT-1970" value="" style="edgeStyle=none;rounded=0;jumpStyle=none;html=1;shadow=0;labelBackgroundColor=none;startArrow=none;startFill=0;endArrow=classic;endFill=1;jettySize=auto;orthogonalLoop=1;strokeColor=#1699D3;strokeWidth=3;fontFamily=Helvetica;fontSize=14;fontColor=#FFFFFF;spacing=5;exitX=0;exitY=0.25;exitDx=0;exitDy=0;entryX=1;entryY=0.5;entryDx=0;entryDy=0;" parent="1" source="cA759FfLyGFbBNWkvWXT-1966" target="cA759FfLyGFbBNWkvWXT-1969" edge="1">
          <mxGeometry relative="1" as="geometry">
            <mxPoint x="503" y="610.5" as="sourcePoint" />
            <mxPoint x="452" y="610.5" as="targetPoint" />
          </mxGeometry>
        </mxCell>
        <mxCell id="cA759FfLyGFbBNWkvWXT-1971" value="" style="edgeStyle=none;rounded=0;jumpStyle=none;html=1;shadow=0;labelBackgroundColor=none;startArrow=none;startFill=0;endArrow=classic;endFill=1;jettySize=auto;orthogonalLoop=1;strokeColor=#1699D3;strokeWidth=3;fontFamily=Helvetica;fontSize=14;fontColor=#FFFFFF;spacing=5;exitX=0.25;exitY=1;exitDx=0;exitDy=0;entryX=1;entryY=0.5;entryDx=0;entryDy=0;" parent="1" source="cA759FfLyGFbBNWkvWXT-1966" target="cA759FfLyGFbBNWkvWXT-1968" edge="1">
          <mxGeometry relative="1" as="geometry">
            <mxPoint x="348" y="610.5" as="sourcePoint" />
            <mxPoint x="307" y="580" as="targetPoint" />
          </mxGeometry>
        </mxCell>
        <mxCell id="cA759FfLyGFbBNWkvWXT-1972" value="" style="edgeStyle=none;rounded=0;jumpStyle=none;html=1;shadow=0;labelBackgroundColor=none;startArrow=none;startFill=0;endArrow=classic;endFill=1;jettySize=auto;orthogonalLoop=1;strokeColor=#1699D3;strokeWidth=3;fontFamily=Helvetica;fontSize=14;fontColor=#FFFFFF;spacing=5;exitX=0.5;exitY=1;exitDx=0;exitDy=0;entryX=0.5;entryY=1;entryDx=0;entryDy=0;" parent="1" source="cA759FfLyGFbBNWkvWXT-1958" target="cA759FfLyGFbBNWkvWXT-1968" edge="1">
          <mxGeometry relative="1" as="geometry">
            <mxPoint x="374" y="642.5" as="sourcePoint" />
            <mxPoint x="322" y="700" as="targetPoint" />
            <Array as="points">
              <mxPoint x="950" y="910" />
              <mxPoint x="260" y="910" />
            </Array>
          </mxGeometry>
        </mxCell>
        <mxCell id="cA759FfLyGFbBNWkvWXT-1973" value="" style="edgeStyle=none;rounded=0;jumpStyle=none;html=1;shadow=0;labelBackgroundColor=none;startArrow=none;startFill=0;endArrow=classic;endFill=1;jettySize=auto;orthogonalLoop=1;strokeColor=#1699D3;strokeWidth=3;fontFamily=Helvetica;fontSize=14;spacing=5;exitX=1;exitY=0.5;exitDx=0;exitDy=0;entryX=0;entryY=0.5;entryDx=0;entryDy=0;fontColor=#333333;" parent="1" source="cA759FfLyGFbBNWkvWXT-1951" target="cA759FfLyGFbBNWkvWXT-1956" edge="1">
          <mxGeometry relative="1" as="geometry">
            <mxPoint x="657" y="641.3" as="sourcePoint" />
            <mxPoint x="703" y="659.7" as="targetPoint" />
          </mxGeometry>
        </mxCell>
        <mxCell id="cA759FfLyGFbBNWkvWXT-1974" value="" style="edgeStyle=none;rounded=0;jumpStyle=none;html=1;shadow=0;labelBackgroundColor=none;startArrow=none;startFill=0;endArrow=classic;endFill=1;jettySize=auto;orthogonalLoop=1;strokeColor=#1699D3;strokeWidth=3;fontFamily=Helvetica;fontSize=14;spacing=5;exitX=0.75;exitY=1;exitDx=0;exitDy=0;entryX=0.026;entryY=0.609;entryDx=0;entryDy=0;entryPerimeter=0;fontColor=#333333;" parent="1" source="cA759FfLyGFbBNWkvWXT-1951" target="cA759FfLyGFbBNWkvWXT-1957" edge="1">
          <mxGeometry relative="1" as="geometry">
            <mxPoint x="857" y="690.5" as="sourcePoint" />
            <mxPoint x="883" y="690.5" as="targetPoint" />
          </mxGeometry>
        </mxCell>
        <mxCell id="cA759FfLyGFbBNWkvWXT-1975" value="" style="edgeStyle=none;rounded=0;jumpStyle=none;html=1;shadow=0;labelBackgroundColor=none;startArrow=none;startFill=0;endArrow=classic;endFill=1;jettySize=auto;orthogonalLoop=1;strokeColor=#1699D3;strokeWidth=3;fontFamily=Helvetica;fontSize=14;spacing=5;exitX=0.5;exitY=1;exitDx=0;exitDy=0;entryX=0;entryY=0.5;entryDx=0;entryDy=0;fontColor=#333333;" parent="1" source="cA759FfLyGFbBNWkvWXT-1951" target="cA759FfLyGFbBNWkvWXT-1958" edge="1">
          <mxGeometry relative="1" as="geometry">
            <mxPoint x="867" y="700.5" as="sourcePoint" />
            <mxPoint x="893" y="700.5" as="targetPoint" />
          </mxGeometry>
        </mxCell>
        <mxCell id="cA759FfLyGFbBNWkvWXT-1976" value="VMs" style="rounded=1;whiteSpace=wrap;html=1;shadow=0;labelBackgroundColor=none;strokeColor=#64BBE2;strokeWidth=3;fillColor=#B9E0A5;fontFamily=Helvetica;fontSize=14;align=center;spacing=5;arcSize=7;perimeterSpacing=2;fontColor=#333333;" parent="1" vertex="1">
          <mxGeometry x="1102" y="693" width="70" height="60" as="geometry" />
        </mxCell>
        <mxCell id="cA759FfLyGFbBNWkvWXT-1977" value="" style="edgeStyle=none;rounded=0;jumpStyle=none;html=1;shadow=0;labelBackgroundColor=none;startArrow=none;startFill=0;endArrow=classic;endFill=1;jettySize=auto;orthogonalLoop=1;strokeColor=#1699D3;strokeWidth=3;fontFamily=Helvetica;fontSize=14;spacing=5;exitX=1;exitY=0.5;exitDx=0;exitDy=0;entryX=0;entryY=0.5;entryDx=0;entryDy=0;fontColor=#333333;" parent="1" source="cA759FfLyGFbBNWkvWXT-1956" target="cA759FfLyGFbBNWkvWXT-1976" edge="1">
          <mxGeometry relative="1" as="geometry">
            <mxPoint x="1037" y="690.5" as="sourcePoint" />
            <mxPoint x="1098" y="660" as="targetPoint" />
          </mxGeometry>
        </mxCell>
        <mxCell id="cA759FfLyGFbBNWkvWXT-1978" value="" style="edgeStyle=none;rounded=0;jumpStyle=none;html=1;shadow=0;labelBackgroundColor=none;startArrow=none;startFill=0;endArrow=classic;endFill=1;jettySize=auto;orthogonalLoop=1;strokeColor=#1699D3;strokeWidth=3;fontFamily=Helvetica;fontSize=14;spacing=5;exitX=1;exitY=0.5;exitDx=0;exitDy=0;entryX=0;entryY=0.5;entryDx=0;entryDy=0;fontColor=#333333;" parent="1" source="cA759FfLyGFbBNWkvWXT-1959" target="cA759FfLyGFbBNWkvWXT-1962" edge="1">
          <mxGeometry relative="1" as="geometry">
            <mxPoint x="1037" y="690.5" as="sourcePoint" />
            <mxPoint x="1098" y="660" as="targetPoint" />
          </mxGeometry>
        </mxCell>
        <mxCell id="cA759FfLyGFbBNWkvWXT-1979" value="" style="edgeStyle=none;rounded=0;jumpStyle=none;html=1;shadow=0;labelBackgroundColor=none;startArrow=none;startFill=0;endArrow=classic;endFill=1;jettySize=auto;orthogonalLoop=1;strokeColor=#1699D3;strokeWidth=3;fontFamily=Helvetica;fontSize=14;spacing=5;exitX=1;exitY=0.5;exitDx=0;exitDy=0;entryX=0;entryY=0.5;entryDx=0;entryDy=0;fontColor=#333333;" parent="1" source="cA759FfLyGFbBNWkvWXT-1960" target="cA759FfLyGFbBNWkvWXT-1964" edge="1">
          <mxGeometry relative="1" as="geometry">
            <mxPoint x="1195" y="660" as="sourcePoint" />
            <mxPoint x="1308" y="690.5" as="targetPoint" />
          </mxGeometry>
        </mxCell>
        <mxCell id="cA759FfLyGFbBNWkvWXT-1980" value="" style="edgeStyle=none;rounded=0;jumpStyle=none;html=1;shadow=0;labelBackgroundColor=none;startArrow=none;startFill=0;endArrow=classic;endFill=1;jettySize=auto;orthogonalLoop=1;strokeColor=#1699D3;strokeWidth=3;fontFamily=Helvetica;fontSize=14;spacing=5;exitX=1;exitY=0.75;exitDx=0;exitDy=0;entryX=0;entryY=0.5;entryDx=0;entryDy=0;fontColor=#333333;" parent="1" source="cA759FfLyGFbBNWkvWXT-1960" edge="1">
          <mxGeometry relative="1" as="geometry">
            <mxPoint x="1222" y="820" as="sourcePoint" />
            <mxPoint x="1298" y="840" as="targetPoint" />
          </mxGeometry>
        </mxCell>
        <mxCell id="cA759FfLyGFbBNWkvWXT-1981" value="" style="edgeStyle=none;rounded=0;jumpStyle=none;html=1;shadow=0;labelBackgroundColor=none;startArrow=none;startFill=0;endArrow=classic;endFill=1;jettySize=auto;orthogonalLoop=1;strokeColor=#1699D3;strokeWidth=3;fontFamily=Helvetica;fontSize=14;spacing=5;exitX=1;exitY=0.25;exitDx=0;exitDy=0;entryX=0;entryY=0.75;entryDx=0;entryDy=0;fontColor=#333333;" parent="1" source="cA759FfLyGFbBNWkvWXT-1957" target="cA759FfLyGFbBNWkvWXT-1976" edge="1">
          <mxGeometry relative="1" as="geometry">
            <mxPoint x="1037" y="690.5" as="sourcePoint" />
            <mxPoint x="1110" y="733" as="targetPoint" />
          </mxGeometry>
        </mxCell>
        <mxCell id="cA759FfLyGFbBNWkvWXT-1982" value="" style="edgeStyle=none;rounded=0;jumpStyle=none;html=1;shadow=0;labelBackgroundColor=none;startArrow=none;startFill=0;endArrow=classic;endFill=1;jettySize=auto;orthogonalLoop=1;strokeColor=#1699D3;strokeWidth=3;fontFamily=Helvetica;fontSize=14;spacing=5;exitX=0.25;exitY=1;exitDx=0;exitDy=0;entryX=0.5;entryY=0;entryDx=0;entryDy=0;fontColor=#333333;" parent="1" source="cA759FfLyGFbBNWkvWXT-1952" target="cA759FfLyGFbBNWkvWXT-1954" edge="1">
          <mxGeometry relative="1" as="geometry">
            <mxPoint x="857" y="690.5" as="sourcePoint" />
            <mxPoint x="883" y="690.5" as="targetPoint" />
          </mxGeometry>
        </mxCell>
        <mxCell id="cA759FfLyGFbBNWkvWXT-1983" value="" style="edgeStyle=none;rounded=0;jumpStyle=none;html=1;shadow=0;labelBackgroundColor=none;startArrow=none;startFill=0;endArrow=classic;endFill=1;jettySize=auto;orthogonalLoop=1;strokeColor=#1699D3;strokeWidth=3;fontFamily=Helvetica;fontSize=14;spacing=5;exitX=0.75;exitY=1;exitDx=0;exitDy=0;entryX=0.5;entryY=0;entryDx=0;entryDy=0;fontColor=#333333;" parent="1" source="cA759FfLyGFbBNWkvWXT-1952" target="cA759FfLyGFbBNWkvWXT-1955" edge="1">
          <mxGeometry relative="1" as="geometry">
            <mxPoint x="661.5" y="802" as="sourcePoint" />
            <mxPoint x="661.5" y="822" as="targetPoint" />
          </mxGeometry>
        </mxCell>
      </root>
    </mxGraphModel>
  </diagram>
</mxfile>
